{
  "accessors": [
    {
      "name": "pPlane6_1_0_positions",
      "componentType": 5126,
      "count": 5151,
      "min": [
        2.5273189544677734,
        0.6468619704246521,
        -0.02666199952363968
      ],
      "max": [
        5.540609836578369,
        3.2987608909606934,
        2.472179889678955
      ],
      "type": "VEC3",
      "bufferView": 0,
      "byteOffset": 0
    },
    {
      "name": "pPlane6_1_0_normals",
      "componentType": 5126,
      "count": 5151,
      "min": [
        -0.9751024842262268,
        -0.45322883129119873,
        -0.2620120048522949
      ],
      "max": [
        0.27088800072669983,
        0.998724102973938,
        0.9999747276306152
      ],
      "type": "VEC3",
      "bufferView": 1,
      "byteOffset": 0
    },
    {
      "name": "pPlane6_1_0_texcoords",
      "componentType": 5126,
      "count": 5151,
      "min": [
        0,
        0
      ],
      "max": [
        1,
        1
      ],
      "type": "VEC2",
      "bufferView": 2,
      "byteOffset": 0
    },
    {
      "name": "pPlane6_1_0_indices",
      "componentType": 5123,
      "count": 30000,
      "min": [
        0
      ],
      "max": [
        5150
      ],
      "type": "SCALAR",
      "bufferView": 3,
      "byteOffset": 0
    }
  ],
  "asset": {
    "generator": "obj2gltf",
    "version": "2.0"
  },
  "buffers": [
    {
      "name": "TRANSPERENT-HORIZONTAL1920X1080",
      "byteLength": 1754000,
      "uri": "data:application/octet-stream;base64,"
    }
  ],
  "bufferViews": [
    {
      "name": "bufferView_0",
      "buffer": 0,
      "byteLength": 61812,
      "byteOffset": 0,
      "byteStride": 12,
      "target": 34962
    },
    {
      "name": "bufferView_1",
      "buffer": 0,
      "byteLength": 61812,
      "byteOffset": 61812,
      "byteStride": 12,
      "target": 34962
    },
    {
      "name": "bufferView_2",
      "buffer": 0,
      "byteLength": 41208,
      "byteOffset": 123624,
      "byteStride": 8,
      "target": 34962
    },
    {
      "name": "bufferView_3",
      "buffer": 0,
      "byteLength": 60000,
      "byteOffset": 164832,
      "target": 34963
    },
    {
      "buffer": 0,
      "byteOffset": 224832,
      "byteLength": 1529167
    }
  ],
  "images": [
    {
      "name": "TRANSPERENT-HORIZONTAL1920X1080",
      "mimeType": "image/png",
      "bufferView": 4
    }
  ],
  "materials": [
    {
      "name": "lambert5SG",
      "pbrMetallicRoughness": {
        "baseColorTexture": {
          "index": 0
        },
        "baseColorFactor": [
          1,
          1,
          1,
          1
        ],
        "metallicFactor": 0,
        "roughnessFactor": 1
      },
      "emissiveFactor": [
        0,
        0,
        0
      ],
      "alphaMode": "OPAQUE",
      "doubleSided": false
    }
  ],
  "meshes": [
    {
      "name": "pPlane6_1",
      "primitives": [
        {
          "attributes": {
            "POSITION": 0,
            "NORMAL": 1,
            "TEXCOORD_0": 2
          },
          "indices": 3,
          "material": 0,
          "mode": 4
        }
      ]
    }
  ],
  "nodes": [
    {
      "name": "pPlane6",
      "mesh": 0
    }
  ],
  "samplers": [
    {
      "magFilter": 9729,
      "minFilter": 9986,
      "wrapS": 10497,
      "wrapT": 10497
    }
  ],
  "scene": 0,
  "scenes": [
    {
      "nodes": [
        0
      ]
    }
  ],
  "textures": [
    {
      "name": "TRANSPERENT-HORIZONTAL1920X1080",
      "sampler": 0,
      "source": 0
    }
  ]
}
