{
  "accessors": [
    {
      "name": "pPlane3_1_0_positions",
      "componentType": 5126,
      "count": 4681,
      "min": [
        -5.088166236877441,
        0.019175000488758087,
        -2.1931040287017822
      ],
      "max": [
        -2.8730430603027344,
        3.2502551078796387,
        1.7927420139312744
      ],
      "type": "VEC3",
      "bufferView": 0,
      "byteOffset": 0
    },
    {
      "name": "pPlane3_1_0_normals",
      "componentType": 5126,
      "count": 4681,
      "min": [
        -0.9983453750610352,
        -0.5530338287353516,
        -0.9990341067314148
      ],
      "max": [
        0.9710455536842346,
        1,
        0.9963760375976562
      ],
      "type": "VEC3",
      "bufferView": 1,
      "byteOffset": 0
    },
    {
      "name": "pPlane3_1_0_texcoords",
      "componentType": 5126,
      "count": 4681,
      "min": [
        0,
        0
      ],
      "max": [
        1,
        1
      ],
      "type": "VEC2",
      "bufferView": 2,
      "byteOffset": 0
    },
    {
      "name": "pPlane3_1_0_indices",
      "componentType": 5123,
      "count": 27000,
      "min": [
        0
      ],
      "max": [
        4680
      ],
      "type": "SCALAR",
      "bufferView": 3,
      "byteOffset": 0
    }
  ],
  "asset": {
    "generator": "obj2gltf",
    "version": "2.0"
  },
  "buffers": [
    {
      "name": "LONG",
      "byteLength": 2273004,
      "uri": "data:application/octet-stream;base64,"
    }
  ],
  "bufferViews": [
    {
      "name": "bufferView_0",
      "buffer": 0,
      "byteLength": 56172,
      "byteOffset": 0,
      "byteStride": 12,
      "target": 34962
    },
    {
      "name": "bufferView_1",
      "buffer": 0,
      "byteLength": 56172,
      "byteOffset": 56172,
      "byteStride": 12,
      "target": 34962
    },
    {
      "name": "bufferView_2",
      "buffer": 0,
      "byteLength": 37448,
      "byteOffset": 112344,
      "byteStride": 8,
      "target": 34962
    },
    {
      "name": "bufferView_3",
      "buffer": 0,
      "byteLength": 54000,
      "byteOffset": 149792,
      "target": 34963
    },
    {
      "buffer": 0,
      "byteOffset": 203792,
      "byteLength": 2069209
    }
  ],
  "images": [
    {
      "name": "LONG",
      "mimeType": "image/png",
      "bufferView": 4
    }
  ],
  "materials": [
    {
      "name": "lambert3SG",
      "pbrMetallicRoughness": {
        "baseColorTexture": {
          "index": 0
        },
        "baseColorFactor": [
          1,
          1,
          1,
          1
        ],
        "metallicFactor": 0,
        "roughnessFactor": 1
      },
      "emissiveFactor": [
        0,
        0,
        0
      ],
      "alphaMode": "OPAQUE",
      "doubleSided": false
    }
  ],
  "meshes": [
    {
      "name": "pPlane3_1",
      "primitives": [
        {
          "attributes": {
            "POSITION": 0,
            "NORMAL": 1,
            "TEXCOORD_0": 2
          },
          "indices": 3,
          "material": 0,
          "mode": 4
        }
      ]
    }
  ],
  "nodes": [
    {
      "name": "pPlane3",
      "mesh": 0
    }
  ],
  "samplers": [
    {
      "magFilter": 9729,
      "minFilter": 9986,
      "wrapS": 10497,
      "wrapT": 10497
    }
  ],
  "scene": 0,
  "scenes": [
    {
      "nodes": [
        0
      ]
    }
  ],
  "textures": [
    {
      "name": "LONG",
      "sampler": 0,
      "source": 0
    }
  ]
}
