{
  "accessors": [
    {
      "name": "pPlane4_1_0_positions",
      "componentType": 5126,
      "count": 5151,
      "min": [
        1.436094045639038,
        0.02492699958384037,
        -4.9724040031433105
      ],
      "max": [
        6.485540866851807,
        4.494079113006592,
        -1.5079209804534912
      ],
      "type": "VEC3",
      "bufferView": 0,
      "byteOffset": 0
    },
    {
      "name": "pPlane4_1_0_normals",
      "componentType": 5126,
      "count": 5151,
      "min": [
        -0.9975823163986206,
        -0.9492764472961426,
        -0.9475029110908508
      ],
      "max": [
        0.9924191236495972,
        0.9999767541885376,
        0.9999989867210388
      ],
      "type": "VEC3",
      "bufferView": 1,
      "byteOffset": 0
    },
    {
      "name": "pPlane4_1_0_texcoords",
      "componentType": 5126,
      "count": 5151,
      "min": [
        0,
        0
      ],
      "max": [
        1,
        1
      ],
      "type": "VEC2",
      "bufferView": 2,
      "byteOffset": 0
    },
    {
      "name": "pPlane4_1_0_indices",
      "componentType": 5123,
      "count": 29994,
      "min": [
        0
      ],
      "max": [
        5150
      ],
      "type": "SCALAR",
      "bufferView": 3,
      "byteOffset": 0
    }
  ],
  "asset": {
    "generator": "obj2gltf",
    "version": "2.0"
  },
  "buffers": [
    {
      "name": "TALL_BLACK",
      "byteLength": 1123644,
      "uri": "data:application/octet-stream;base64,"
    }
  ],
  "bufferViews": [
    {
      "name": "bufferView_0",
      "buffer": 0,
      "byteLength": 61812,
      "byteOffset": 0,
      "byteStride": 12,
      "target": 34962
    },
    {
      "name": "bufferView_1",
      "buffer": 0,
      "byteLength": 61812,
      "byteOffset": 61812,
      "byteStride": 12,
      "target": 34962
    },
    {
      "name": "bufferView_2",
      "buffer": 0,
      "byteLength": 41208,
      "byteOffset": 123624,
      "byteStride": 8,
      "target": 34962
    },
    {
      "name": "bufferView_3",
      "buffer": 0,
      "byteLength": 59988,
      "byteOffset": 164832,
      "target": 34963
    },
    {
      "buffer": 0,
      "byteOffset": 224820,
      "byteLength": 898824
    }
  ],
  "images": [
    {
      "name": "TALL-BLACK",
      "mimeType": "image/png",
      "bufferView": 4
    }
  ],
  "materials": [
    {
      "name": "lambert4SG",
      "pbrMetallicRoughness": {
        "baseColorTexture": {
          "index": 0
        },
        "baseColorFactor": [
          1,
          1,
          1,
          1
        ],
        "metallicFactor": 0,
        "roughnessFactor": 1
      },
      "emissiveFactor": [
        0,
        0,
        0
      ],
      "alphaMode": "OPAQUE",
      "doubleSided": false
    }
  ],
  "meshes": [
    {
      "name": "pPlane4_1",
      "primitives": [
        {
          "attributes": {
            "POSITION": 0,
            "NORMAL": 1,
            "TEXCOORD_0": 2
          },
          "indices": 3,
          "material": 0,
          "mode": 4
        }
      ]
    }
  ],
  "nodes": [
    {
      "name": "pPlane4",
      "mesh": 0
    }
  ],
  "samplers": [
    {
      "magFilter": 9729,
      "minFilter": 9986,
      "wrapS": 10497,
      "wrapT": 10497
    }
  ],
  "scene": 0,
  "scenes": [
    {
      "nodes": [
        0
      ]
    }
  ],
  "textures": [
    {
      "name": "TALL-BLACK",
      "sampler": 0,
      "source": 0
    }
  ]
}
