{
  "accessors": [
    {
      "name": "pPlane9_1_0_positions",
      "componentType": 5126,
      "count": 6161,
      "min": [
        -28.813100814819336,
        0.07405699789524078,
        -12.223184585571289
      ],
      "max": [
        -15.257220268249512,
        11.146273612976074,
        5.801332950592041
      ],
      "type": "VEC3",
      "bufferView": 0,
      "byteOffset": 0
    },
    {
      "name": "pPlane9_1_0_normals",
      "componentType": 5126,
      "count": 6161,
      "min": [
        -0.9999898672103882,
        -0.920693039894104,
        -0.9613847732543945
      ],
      "max": [
        0.9999902844429016,
        0.9999978542327881,
        0.6300086975097656
      ],
      "type": "VEC3",
      "bufferView": 1,
      "byteOffset": 0
    },
    {
      "name": "pPlane9_1_0_texcoords",
      "componentType": 5126,
      "count": 6161,
      "min": [
        0,
        0
      ],
      "max": [
        1,
        1
      ],
      "type": "VEC2",
      "bufferView": 2,
      "byteOffset": 0
    },
    {
      "name": "pPlane9_1_0_indices",
      "componentType": 5123,
      "count": 36000,
      "min": [
        0
      ],
      "max": [
        6160
      ],
      "type": "SCALAR",
      "bufferView": 3,
      "byteOffset": 0
    }
  ],
  "asset": {
    "generator": "obj2gltf",
    "version": "2.0"
  },
  "buffers": [
    {
      "name": "u_cloth",
      "byteLength": 269152,
      "uri": "data:application/octet-stream;base64,"
    }
  ],
  "bufferViews": [
    {
      "name": "bufferView_0",
      "buffer": 0,
      "byteLength": 73932,
      "byteOffset": 0,
      "byteStride": 12,
      "target": 34962
    },
    {
      "name": "bufferView_1",
      "buffer": 0,
      "byteLength": 73932,
      "byteOffset": 73932,
      "byteStride": 12,
      "target": 34962
    },
    {
      "name": "bufferView_2",
      "buffer": 0,
      "byteLength": 49288,
      "byteOffset": 147864,
      "byteStride": 8,
      "target": 34962
    },
    {
      "name": "bufferView_3",
      "buffer": 0,
      "byteLength": 72000,
      "byteOffset": 197152,
      "target": 34963
    }
  ],
  "materials": [
    {
      "name": "initialShadingGroup",
      "pbrMetallicRoughness": {
        "baseColorFactor": [
          0.5,
          0.5,
          0.5,
          1
        ],
        "metallicFactor": 0,
        "roughnessFactor": 1
      },
      "emissiveFactor": [
        0,
        0,
        0
      ],
      "alphaMode": "OPAQUE",
      "doubleSided": false
    }
  ],
  "meshes": [
    {
      "name": "pPlane9_1",
      "primitives": [
        {
          "attributes": {
            "POSITION": 0,
            "NORMAL": 1,
            "TEXCOORD_0": 2
          },
          "indices": 3,
          "material": 0,
          "mode": 4
        }
      ]
    }
  ],
  "nodes": [
    {
      "name": "pPlane9",
      "mesh": 0
    }
  ],
  "scene": 0,
  "scenes": [
    {
      "nodes": [
        0
      ]
    }
  ]
}
