{
  "accessors": [
    {
      "name": "Gallery_collision_1_0_positions",
      "componentType": 5126,
      "count": 1085,
      "min": [
        -26.451129913330078,
        -0.3883480131626129,
        -27.295978546142578
      ],
      "max": [
        27.390474319458008,
        12.415534019470215,
        27.091623306274414
      ],
      "type": "VEC3",
      "bufferView": 0,
      "byteOffset": 0
    },
    {
      "name": "Gallery_collision_1_0_normals",
      "componentType": 5126,
      "count": 1085,
      "min": [
        -0.9997172355651855,
        -0.4471330940723419,
        -0.9998770356178284
      ],
      "max": [
        0.9997336268424988,
        0.9998819828033447,
        0.9999963045120239
      ],
      "type": "VEC3",
      "bufferView": 1,
      "byteOffset": 0
    },
    {
      "name": "Gallery_collision_1_0_texcoords",
      "componentType": 5126,
      "count": 1085,
      "min": [
        -0.44508999586105347,
        -0.8337460160255432
      ],
      "max": [
        1.8770339488983154,
        1.8178069591522217
      ],
      "type": "VEC2",
      "bufferView": 2,
      "byteOffset": 0
    },
    {
      "name": "Gallery_collision_1_0_indices",
      "componentType": 5123,
      "count": 5949,
      "min": [
        0
      ],
      "max": [
        1084
      ],
      "type": "SCALAR",
      "bufferView": 3,
      "byteOffset": 0
    }
  ],
  "asset": {
    "generator": "obj2gltf",
    "version": "2.0"
  },
  "buffers": [
    {
      "name": "sculpted_gallery_v02_collision",
      "byteLength": 309048,
      "uri": "data:application/octet-stream;base64,"
    }
  ],
  "bufferViews": [
    {
      "name": "bufferView_0",
      "buffer": 0,
      "byteLength": 13020,
      "byteOffset": 0,
      "byteStride": 12,
      "target": 34962
    },
    {
      "name": "bufferView_1",
      "buffer": 0,
      "byteLength": 13020,
      "byteOffset": 13020,
      "byteStride": 12,
      "target": 34962
    },
    {
      "name": "bufferView_2",
      "buffer": 0,
      "byteLength": 8680,
      "byteOffset": 26040,
      "byteStride": 8,
      "target": 34962
    },
    {
      "name": "bufferView_3",
      "buffer": 0,
      "byteLength": 11900,
      "byteOffset": 34720,
      "target": 34963
    },
    {
      "buffer": 0,
      "byteOffset": 46620,
      "byteLength": 262428
    }
  ],
  "images": [
    {
      "name": "Diffraction_by_oil_on_water",
      "mimeType": "image/jpeg",
      "bufferView": 4
    }
  ],
  "materials": [
    {
      "name": "yanzi_20200708_0151:lambert2SG",
      "pbrMetallicRoughness": {
        "baseColorTexture": {
          "index": 0
        },
        "baseColorFactor": [
          1,
          1,
          1,
          1
        ],
        "metallicFactor": 0,
        "roughnessFactor": 1
      },
      "emissiveFactor": [
        0,
        0,
        0
      ],
      "alphaMode": "OPAQUE",
      "doubleSided": false
    }
  ],
  "meshes": [
    {
      "name": "Gallery_collision_1",
      "primitives": [
        {
          "attributes": {
            "POSITION": 0,
            "NORMAL": 1,
            "TEXCOORD_0": 2
          },
          "indices": 3,
          "material": 0,
          "mode": 4
        }
      ]
    }
  ],
  "nodes": [
    {
      "name": "Gallery_collision",
      "mesh": 0
    }
  ],
  "samplers": [
    {
      "magFilter": 9729,
      "minFilter": 9986,
      "wrapS": 10497,
      "wrapT": 10497
    }
  ],
  "scene": 0,
  "scenes": [
    {
      "nodes": [
        0
      ]
    }
  ],
  "textures": [
    {
      "name": "Diffraction_by_oil_on_water",
      "sampler": 0,
      "source": 0
    }
  ]
}
