{
  "accessors": [
    {
      "name": "yanzi_20200708_0151:Gallery_1_0_positions",
      "componentType": 5126,
      "count": 12466,
      "min": [
        -27.029787063598633,
        -0.43818899989128113,
        -27.318220138549805
      ],
      "max": [
        27.67807388305664,
        12.487133026123047,
        27.10634422302246
      ],
      "type": "VEC3",
      "bufferView": 0,
      "byteOffset": 0
    },
    {
      "name": "yanzi_20200708_0151:Gallery_1_0_normals",
      "componentType": 5126,
      "count": 12466,
      "min": [
        -0.999998152256012,
        -0.565652072429657,
        -1
      ],
      "max": [
        0.9999735951423645,
        0.9999911785125732,
        1
      ],
      "type": "VEC3",
      "bufferView": 1,
      "byteOffset": 0
    },
    {
      "name": "yanzi_20200708_0151:Gallery_1_0_texcoords",
      "componentType": 5126,
      "count": 12466,
      "min": [
        -0.7100300192832947,
        -0.8695470094680786
      ],
      "max": [
        1.8995569944381714,
        1.8366550207138062
      ],
      "type": "VEC2",
      "bufferView": 2,
      "byteOffset": 0
    },
    {
      "name": "yanzi_20200708_0151:Gallery_1_0_indices",
      "componentType": 5123,
      "count": 74064,
      "min": [
        0
      ],
      "max": [
        12465
      ],
      "type": "SCALAR",
      "bufferView": 3,
      "byteOffset": 0
    }
  ],
  "asset": {
    "generator": "obj2gltf",
    "version": "2.0"
  },
  "buffers": [
    {
      "name": "sculpted_gallery_v02",
      "byteLength": 608948,
      "uri": "data:application/octet-stream;base64,"
    }
  ],
  "bufferViews": [
    {
      "name": "bufferView_0",
      "buffer": 0,
      "byteLength": 149592,
      "byteOffset": 0,
      "byteStride": 12,
      "target": 34962
    },
    {
      "name": "bufferView_1",
      "buffer": 0,
      "byteLength": 149592,
      "byteOffset": 149592,
      "byteStride": 12,
      "target": 34962
    },
    {
      "name": "bufferView_2",
      "buffer": 0,
      "byteLength": 99728,
      "byteOffset": 299184,
      "byteStride": 8,
      "target": 34962
    },
    {
      "name": "bufferView_3",
      "buffer": 0,
      "byteLength": 148128,
      "byteOffset": 398912,
      "target": 34963
    },
    {
      "buffer": 0,
      "byteOffset": 547040,
      "byteLength": 61908
    }
  ],
  "images": [
    {
      "name": "abstract",
      "mimeType": "image/jpeg",
      "bufferView": 4
    }
  ],
  "materials": [
    {
      "name": "yanzi_20200708_0151:lambert2SG",
      "pbrMetallicRoughness": {
        "baseColorTexture": {
          "index": 0
        },
        "baseColorFactor": [
          1,
          1,
          1,
          1
        ],
        "metallicFactor": 0,
        "roughnessFactor": 1
      },
      "emissiveFactor": [
        0,
        0,
        0
      ],
      "alphaMode": "OPAQUE",
      "doubleSided": false
    }
  ],
  "meshes": [
    {
      "name": "yanzi_20200708_0151:Gallery_1",
      "primitives": [
        {
          "attributes": {
            "POSITION": 0,
            "NORMAL": 1,
            "TEXCOORD_0": 2
          },
          "indices": 3,
          "material": 0,
          "mode": 4
        }
      ]
    }
  ],
  "nodes": [
    {
      "name": "yanzi_20200708_0151:Gallery",
      "mesh": 0
    }
  ],
  "samplers": [
    {
      "magFilter": 9729,
      "minFilter": 9986,
      "wrapS": 10497,
      "wrapT": 10497
    }
  ],
  "scene": 0,
  "scenes": [
    {
      "nodes": [
        0
      ]
    }
  ],
  "textures": [
    {
      "name": "abstract",
      "sampler": 0,
      "source": 0
    }
  ]
}
