{
  "accessors": [
    {
      "name": "T4_cloth_1_0_positions",
      "componentType": 5126,
      "count": 1326,
      "min": [
        15.281267166137695,
        0.10107895731925964,
        0.7257473468780518
      ],
      "max": [
        18.396862030029297,
        10.109731674194336,
        6.122621536254883
      ],
      "type": "VEC3",
      "bufferView": 0,
      "byteOffset": 0
    },
    {
      "name": "T4_cloth_1_0_normals",
      "componentType": 5126,
      "count": 1326,
      "min": [
        -0.9999253153800964,
        -0.39985209703445435,
        -0.9994951486587524
      ],
      "max": [
        0.1189415454864502,
        1,
        0.9619763493537903
      ],
      "type": "VEC3",
      "bufferView": 1,
      "byteOffset": 0
    },
    {
      "name": "T4_cloth_1_0_texcoords",
      "componentType": 5126,
      "count": 1326,
      "min": [
        0,
        0
      ],
      "max": [
        1,
        1
      ],
      "type": "VEC2",
      "bufferView": 2,
      "byteOffset": 0
    },
    {
      "name": "T4_cloth_1_0_indices",
      "componentType": 5123,
      "count": 7500,
      "min": [
        0
      ],
      "max": [
        1325
      ],
      "type": "SCALAR",
      "bufferView": 3,
      "byteOffset": 0
    },
    {
      "name": "T6_cloth_1_0_positions",
      "componentType": 5126,
      "count": 1326,
      "min": [
        -3.364973545074463,
        0.11603757739067078,
        22.842838287353516
      ],
      "max": [
        3.9217424392700195,
        9.866360664367676,
        26.12983512878418
      ],
      "type": "VEC3",
      "bufferView": 0,
      "byteOffset": 15912
    },
    {
      "name": "T6_cloth_1_0_normals",
      "componentType": 5126,
      "count": 1326,
      "min": [
        -0.6640417575836182,
        -0.9999971389770508,
        -0.9999220967292786
      ],
      "max": [
        0.9941462874412537,
        0.9999983906745911,
        0.5112637877464294
      ],
      "type": "VEC3",
      "bufferView": 1,
      "byteOffset": 15912
    },
    {
      "name": "T6_cloth_1_0_texcoords",
      "componentType": 5126,
      "count": 1326,
      "min": [
        0,
        0
      ],
      "max": [
        1,
        1
      ],
      "type": "VEC2",
      "bufferView": 2,
      "byteOffset": 10608
    },
    {
      "name": "T6_cloth_1_0_indices",
      "componentType": 5123,
      "count": 7500,
      "min": [
        0
      ],
      "max": [
        1325
      ],
      "type": "SCALAR",
      "bufferView": 3,
      "byteOffset": 15000
    },
    {
      "name": "T7_cloth_1_0_positions",
      "componentType": 5126,
      "count": 1326,
      "min": [
        -17.033857345581055,
        0.3381471633911133,
        -0.02918696403503418
      ],
      "max": [
        -15.186746597290039,
        10.15188980102539,
        5.811452388763428
      ],
      "type": "VEC3",
      "bufferView": 0,
      "byteOffset": 31824
    },
    {
      "name": "T7_cloth_1_0_normals",
      "componentType": 5126,
      "count": 1326,
      "min": [
        -0.3447326123714447,
        -1,
        -0.9997984170913696
      ],
      "max": [
        0.9999679327011108,
        1,
        0.8960191607475281
      ],
      "type": "VEC3",
      "bufferView": 1,
      "byteOffset": 31824
    },
    {
      "name": "T7_cloth_1_0_texcoords",
      "componentType": 5126,
      "count": 1326,
      "min": [
        0,
        0
      ],
      "max": [
        1,
        1
      ],
      "type": "VEC2",
      "bufferView": 2,
      "byteOffset": 21216
    },
    {
      "name": "T7_cloth_1_0_indices",
      "componentType": 5123,
      "count": 7500,
      "min": [
        0
      ],
      "max": [
        1325
      ],
      "type": "SCALAR",
      "bufferView": 3,
      "byteOffset": 30000
    },
    {
      "name": "ideas1_cloth1_1_0_positions",
      "componentType": 5126,
      "count": 1734,
      "min": [
        -14.486492156982422,
        1.2323598861694336,
        -11.047798156738281
      ],
      "max": [
        -5.2417755126953125,
        8.57961654663086,
        -10.178966522216797
      ],
      "type": "VEC3",
      "bufferView": 0,
      "byteOffset": 47736
    },
    {
      "name": "ideas1_cloth1_1_0_normals",
      "componentType": 5126,
      "count": 1734,
      "min": [
        -0.912604808807373,
        -0.8060116171836853,
        0.408558189868927
      ],
      "max": [
        0.8775206208229065,
        0.2727741599082947,
        0.9999995231628418
      ],
      "type": "VEC3",
      "bufferView": 1,
      "byteOffset": 47736
    },
    {
      "name": "ideas1_cloth1_1_0_texcoords",
      "componentType": 5126,
      "count": 1734,
      "min": [
        0,
        0
      ],
      "max": [
        1,
        1
      ],
      "type": "VEC2",
      "bufferView": 2,
      "byteOffset": 31824
    },
    {
      "name": "ideas1_cloth1_1_0_indices",
      "componentType": 5123,
      "count": 9900,
      "min": [
        0
      ],
      "max": [
        1733
      ],
      "type": "SCALAR",
      "bufferView": 3,
      "byteOffset": 45000
    },
    {
      "name": "ideas2_cloth_1_0_positions",
      "componentType": 5126,
      "count": 1734,
      "min": [
        5.968562126159668,
        0.7106401920318604,
        -11.061702728271484
      ],
      "max": [
        15.62957763671875,
        8.497355461120605,
        -10.256591796875
      ],
      "type": "VEC3",
      "bufferView": 0,
      "byteOffset": 68544
    },
    {
      "name": "ideas2_cloth_1_0_normals",
      "componentType": 5126,
      "count": 1734,
      "min": [
        -0.9223237633705139,
        -0.9053101539611816,
        0.25433340668678284
      ],
      "max": [
        0.8312761783599854,
        0.39744505286216736,
        0.9999997615814209
      ],
      "type": "VEC3",
      "bufferView": 1,
      "byteOffset": 68544
    },
    {
      "name": "ideas2_cloth_1_0_texcoords",
      "componentType": 5126,
      "count": 1734,
      "min": [
        0,
        0
      ],
      "max": [
        1,
        1
      ],
      "type": "VEC2",
      "bufferView": 2,
      "byteOffset": 45696
    },
    {
      "name": "ideas2_cloth_1_0_indices",
      "componentType": 5123,
      "count": 9900,
      "min": [
        0
      ],
      "max": [
        1733
      ],
      "type": "SCALAR",
      "bufferView": 3,
      "byteOffset": 64800
    }
  ],
  "asset": {
    "generator": "obj2gltf",
    "version": "2.0"
  },
  "buffers": [
    {
      "name": "new-cloths-no-gal",
      "byteLength": 322872,
      "uri": "data:application/octet-stream;base64,"
    }
  ],
  "bufferViews": [
    {
      "name": "bufferView_0",
      "buffer": 0,
      "byteLength": 89352,
      "byteOffset": 0,
      "byteStride": 12,
      "target": 34962
    },
    {
      "name": "bufferView_1",
      "buffer": 0,
      "byteLength": 89352,
      "byteOffset": 89352,
      "byteStride": 12,
      "target": 34962
    },
    {
      "name": "bufferView_2",
      "buffer": 0,
      "byteLength": 59568,
      "byteOffset": 178704,
      "byteStride": 8,
      "target": 34962
    },
    {
      "name": "bufferView_3",
      "buffer": 0,
      "byteLength": 84600,
      "byteOffset": 238272,
      "target": 34963
    }
  ],
  "materials": [
    {
      "name": "/mat/lambert4SG",
      "pbrMetallicRoughness": {
        "baseColorFactor": [
          0.5,
          0.5,
          0.5,
          1
        ],
        "metallicFactor": 0,
        "roughnessFactor": 1
      },
      "emissiveFactor": [
        0,
        0,
        0
      ],
      "alphaMode": "OPAQUE",
      "doubleSided": false
    },
    {
      "name": "/mat/lambert7SG",
      "pbrMetallicRoughness": {
        "baseColorFactor": [
          0.5,
          0.5,
          0.5,
          1
        ],
        "metallicFactor": 0,
        "roughnessFactor": 1
      },
      "emissiveFactor": [
        0,
        0,
        0
      ],
      "alphaMode": "OPAQUE",
      "doubleSided": false
    },
    {
      "name": "/mat/lambert8SG",
      "pbrMetallicRoughness": {
        "baseColorFactor": [
          0.5,
          0.5,
          0.5,
          1
        ],
        "metallicFactor": 0,
        "roughnessFactor": 1
      },
      "emissiveFactor": [
        0,
        0,
        0
      ],
      "alphaMode": "OPAQUE",
      "doubleSided": false
    },
    {
      "name": "/mat/lambert10SG",
      "pbrMetallicRoughness": {
        "baseColorFactor": [
          0.5,
          0.5,
          0.5,
          1
        ],
        "metallicFactor": 0,
        "roughnessFactor": 1
      },
      "emissiveFactor": [
        0,
        0,
        0
      ],
      "alphaMode": "OPAQUE",
      "doubleSided": false
    },
    {
      "name": "/mat/lambert11SG",
      "pbrMetallicRoughness": {
        "baseColorFactor": [
          0.5,
          0.5,
          0.5,
          1
        ],
        "metallicFactor": 0,
        "roughnessFactor": 1
      },
      "emissiveFactor": [
        0,
        0,
        0
      ],
      "alphaMode": "OPAQUE",
      "doubleSided": false
    }
  ],
  "meshes": [
    {
      "name": "T4_cloth_1",
      "primitives": [
        {
          "attributes": {
            "POSITION": 0,
            "NORMAL": 1,
            "TEXCOORD_0": 2
          },
          "indices": 3,
          "material": 0,
          "mode": 4
        }
      ]
    },
    {
      "name": "T6_cloth_1",
      "primitives": [
        {
          "attributes": {
            "POSITION": 4,
            "NORMAL": 5,
            "TEXCOORD_0": 6
          },
          "indices": 7,
          "material": 1,
          "mode": 4
        }
      ]
    },
    {
      "name": "T7_cloth_1",
      "primitives": [
        {
          "attributes": {
            "POSITION": 8,
            "NORMAL": 9,
            "TEXCOORD_0": 10
          },
          "indices": 11,
          "material": 2,
          "mode": 4
        }
      ]
    },
    {
      "name": "ideas1_cloth1_1",
      "primitives": [
        {
          "attributes": {
            "POSITION": 12,
            "NORMAL": 13,
            "TEXCOORD_0": 14
          },
          "indices": 15,
          "material": 3,
          "mode": 4
        }
      ]
    },
    {
      "name": "ideas2_cloth_1",
      "primitives": [
        {
          "attributes": {
            "POSITION": 16,
            "NORMAL": 17,
            "TEXCOORD_0": 18
          },
          "indices": 19,
          "material": 4,
          "mode": 4
        }
      ]
    }
  ],
  "nodes": [
    {
      "name": "T4_cloth",
      "mesh": 0
    },
    {
      "name": "T6_cloth",
      "mesh": 1
    },
    {
      "name": "T7_cloth",
      "mesh": 2
    },
    {
      "name": "ideas1_cloth1",
      "mesh": 3
    },
    {
      "name": "ideas2_cloth",
      "mesh": 4
    }
  ],
  "scene": 0,
  "scenes": [
    {
      "nodes": [
        0,
        1,
        2,
        3,
        4
      ]
    }
  ]
}
