{
  "accessors": [
    {
      "name": "sofeirdo_lowered:sofeirdo_1_0_positions",
      "componentType": 5126,
      "count": 6613,
      "min": [
        -1.7219409942626953,
        -0.13130900263786316,
        -20.246227264404297
      ],
      "max": [
        2.5771970748901367,
        2.55240797996521,
        -17.20326042175293
      ],
      "type": "VEC3",
      "bufferView": 0,
      "byteOffset": 0
    },
    {
      "name": "sofeirdo_lowered:sofeirdo_1_0_normals",
      "componentType": 5126,
      "count": 6613,
      "min": [
        -0.9995957612991333,
        -0.9999935626983643,
        -0.9998177289962769
      ],
      "max": [
        0.9999018311500549,
        0.9999301433563232,
        0.9997566938400269
      ],
      "type": "VEC3",
      "bufferView": 1,
      "byteOffset": 0
    },
    {
      "name": "sofeirdo_lowered:sofeirdo_1_0_texcoords",
      "componentType": 5126,
      "count": 6613,
      "min": [
        0.125,
        0
      ],
      "max": [
        0.875,
        1
      ],
      "type": "VEC2",
      "bufferView": 2,
      "byteOffset": 0
    },
    {
      "name": "sofeirdo_lowered:sofeirdo_1_0_indices",
      "componentType": 5123,
      "count": 38160,
      "min": [
        0
      ],
      "max": [
        6612
      ],
      "type": "SCALAR",
      "bufferView": 3,
      "byteOffset": 0
    },
    {
      "name": "sofeirdo_1_0_positions",
      "componentType": 5126,
      "count": 6613,
      "min": [
        -20.646520614624023,
        -0.22343599796295166,
        -19.769702911376953
      ],
      "max": [
        -16.282398223876953,
        2.340498924255371,
        -17.11886215209961
      ],
      "type": "VEC3",
      "bufferView": 0,
      "byteOffset": 79356
    },
    {
      "name": "sofeirdo_1_0_normals",
      "componentType": 5126,
      "count": 6613,
      "min": [
        -0.9998798966407776,
        -0.9995397925376892,
        -0.9992316961288452
      ],
      "max": [
        0.9998923540115356,
        0.999942421913147,
        0.9989696741104126
      ],
      "type": "VEC3",
      "bufferView": 1,
      "byteOffset": 79356
    },
    {
      "name": "sofeirdo_1_0_texcoords",
      "componentType": 5126,
      "count": 6613,
      "min": [
        0.125,
        0
      ],
      "max": [
        0.875,
        1
      ],
      "type": "VEC2",
      "bufferView": 2,
      "byteOffset": 52904
    },
    {
      "name": "sofeirdo_1_0_indices",
      "componentType": 5123,
      "count": 38160,
      "min": [
        0
      ],
      "max": [
        6612
      ],
      "type": "SCALAR",
      "bufferView": 3,
      "byteOffset": 76320
    },
    {
      "name": "yanzi_20200708_0151:sofeirdo_lowered:sofeirdo_1_0_positions",
      "componentType": 5126,
      "count": 6541,
      "min": [
        16.728464126586914,
        -0.3854070007801056,
        -20.047863006591797
      ],
      "max": [
        21.35921287536621,
        1.9293500185012817,
        -17.250911712646484
      ],
      "type": "VEC3",
      "bufferView": 0,
      "byteOffset": 158712
    },
    {
      "name": "yanzi_20200708_0151:sofeirdo_lowered:sofeirdo_1_0_normals",
      "componentType": 5126,
      "count": 6541,
      "min": [
        -0.999797523021698,
        -0.9997400641441345,
        -0.9999901056289673
      ],
      "max": [
        0.9993937015533447,
        0.9998420476913452,
        0.9998329281806946
      ],
      "type": "VEC3",
      "bufferView": 1,
      "byteOffset": 158712
    },
    {
      "name": "yanzi_20200708_0151:sofeirdo_lowered:sofeirdo_1_0_texcoords",
      "componentType": 5126,
      "count": 6541,
      "min": [
        0.12362699955701828,
        0.012245000340044498
      ],
      "max": [
        0.9975929856300354,
        0.9870529770851135
      ],
      "type": "VEC2",
      "bufferView": 2,
      "byteOffset": 105808
    },
    {
      "name": "yanzi_20200708_0151:sofeirdo_lowered:sofeirdo_1_0_indices",
      "componentType": 5123,
      "count": 38148,
      "min": [
        0
      ],
      "max": [
        6540
      ],
      "type": "SCALAR",
      "bufferView": 3,
      "byteOffset": 152640
    }
  ],
  "asset": {
    "generator": "obj2gltf",
    "version": "2.0"
  },
  "buffers": [
    {
      "name": "3_sofeirdos",
      "byteLength": 1148124,
      "uri": "data:application/octet-stream;base64,"
    }
  ],
  "bufferViews": [
    {
      "name": "bufferView_0",
      "buffer": 0,
      "byteLength": 237204,
      "byteOffset": 0,
      "byteStride": 12,
      "target": 34962
    },
    {
      "name": "bufferView_1",
      "buffer": 0,
      "byteLength": 237204,
      "byteOffset": 237204,
      "byteStride": 12,
      "target": 34962
    },
    {
      "name": "bufferView_2",
      "buffer": 0,
      "byteLength": 158136,
      "byteOffset": 474408,
      "byteStride": 8,
      "target": 34962
    },
    {
      "name": "bufferView_3",
      "buffer": 0,
      "byteLength": 228936,
      "byteOffset": 632544,
      "target": 34963
    },
    {
      "buffer": 0,
      "byteOffset": 861480,
      "byteLength": 286642
    }
  ],
  "images": [
    {
      "name": "sofa_grad",
      "mimeType": "image/jpeg",
      "bufferView": 4
    }
  ],
  "materials": [
    {
      "name": "yanzi_20200708_0151:sofeirdo_lowered:phong1SG",
      "pbrMetallicRoughness": {
        "baseColorTexture": {
          "index": 0
        },
        "baseColorFactor": [
          1,
          1,
          1,
          1
        ],
        "metallicFactor": 0,
        "roughnessFactor": 0.982
      },
      "emissiveFactor": [
        0,
        0,
        0
      ],
      "alphaMode": "OPAQUE",
      "doubleSided": false
    }
  ],
  "meshes": [
    {
      "name": "sofeirdo_lowered:sofeirdo_1",
      "primitives": [
        {
          "attributes": {
            "POSITION": 0,
            "NORMAL": 1,
            "TEXCOORD_0": 2
          },
          "indices": 3,
          "material": 0,
          "mode": 4
        }
      ]
    },
    {
      "name": "sofeirdo_1",
      "primitives": [
        {
          "attributes": {
            "POSITION": 4,
            "NORMAL": 5,
            "TEXCOORD_0": 6
          },
          "indices": 7,
          "material": 0,
          "mode": 4
        }
      ]
    },
    {
      "name": "yanzi_20200708_0151:sofeirdo_lowered:sofeirdo_1",
      "primitives": [
        {
          "attributes": {
            "POSITION": 8,
            "NORMAL": 9,
            "TEXCOORD_0": 10
          },
          "indices": 11,
          "material": 0,
          "mode": 4
        }
      ]
    }
  ],
  "nodes": [
    {
      "name": "sofeirdo_lowered:sofeirdo",
      "mesh": 0
    },
    {
      "name": "sofeirdo",
      "mesh": 1
    },
    {
      "name": "yanzi_20200708_0151:sofeirdo_lowered:sofeirdo",
      "mesh": 2
    }
  ],
  "samplers": [
    {
      "magFilter": 9729,
      "minFilter": 9986,
      "wrapS": 10497,
      "wrapT": 10497
    }
  ],
  "scene": 0,
  "scenes": [
    {
      "nodes": [
        0,
        1,
        2
      ]
    }
  ],
  "textures": [
    {
      "name": "sofa_grad",
      "sampler": 0,
      "source": 0
    }
  ]
}
