{
  "accessors": [
    {
      "name": "Gallery_1_0_positions",
      "componentType": 5126,
      "count": 2346,
      "min": [
        -26.987913131713867,
        0,
        -27.313133239746094
      ],
      "max": [
        27.668800354003906,
        9.586006164550781,
        27.091873168945312
      ],
      "type": "VEC3",
      "bufferView": 0,
      "byteOffset": 0
    },
    {
      "name": "Gallery_1_0_normals",
      "componentType": 5126,
      "count": 2346,
      "min": [
        -0.999975860118866,
        0.00469999760389328,
        -0.9999778270721436
      ],
      "max": [
        0.9999759197235107,
        1,
        0.9999850392341614
      ],
      "type": "VEC3",
      "bufferView": 1,
      "byteOffset": 0
    },
    {
      "name": "Gallery_1_0_texcoords",
      "componentType": 5126,
      "count": 2346,
      "min": [
        0.015313999727368355,
        0.01622599922120571
      ],
      "max": [
        0.9833210110664368,
        0.9784250259399414
      ],
      "type": "VEC2",
      "bufferView": 2,
      "byteOffset": 0
    },
    {
      "name": "Gallery_1_0_indices",
      "componentType": 5123,
      "count": 13902,
      "min": [
        0
      ],
      "max": [
        2345
      ],
      "type": "SCALAR",
      "bufferView": 3,
      "byteOffset": 0
    }
  ],
  "asset": {
    "generator": "obj2gltf",
    "version": "2.0"
  },
  "buffers": [
    {
      "name": "gallery_v4",
      "byteLength": 365304,
      "uri": "data:application/octet-stream;base64,"
    }
  ],
  "bufferViews": [
    {
      "name": "bufferView_0",
      "buffer": 0,
      "byteLength": 28152,
      "byteOffset": 0,
      "byteStride": 12,
      "target": 34962
    },
    {
      "name": "bufferView_1",
      "buffer": 0,
      "byteLength": 28152,
      "byteOffset": 28152,
      "byteStride": 12,
      "target": 34962
    },
    {
      "name": "bufferView_2",
      "buffer": 0,
      "byteLength": 18768,
      "byteOffset": 56304,
      "byteStride": 8,
      "target": 34962
    },
    {
      "name": "bufferView_3",
      "buffer": 0,
      "byteLength": 27804,
      "byteOffset": 75072,
      "target": 34963
    },
    {
      "buffer": 0,
      "byteOffset": 102876,
      "byteLength": 262428
    }
  ],
  "images": [
    {
      "name": "Diffraction_by_oil_on_water",
      "mimeType": "image/jpeg",
      "bufferView": 4
    }
  ],
  "materials": [
    {
      "name": "lambert2SG",
      "pbrMetallicRoughness": {
        "baseColorTexture": {
          "index": 0
        },
        "baseColorFactor": [
          1,
          1,
          1,
          1
        ],
        "metallicFactor": 0,
        "roughnessFactor": 1
      },
      "emissiveFactor": [
        0,
        0,
        0
      ],
      "alphaMode": "OPAQUE",
      "doubleSided": false
    }
  ],
  "meshes": [
    {
      "name": "Gallery_1",
      "primitives": [
        {
          "attributes": {
            "POSITION": 0,
            "NORMAL": 1,
            "TEXCOORD_0": 2
          },
          "indices": 3,
          "material": 0,
          "mode": 4
        }
      ]
    }
  ],
  "nodes": [
    {
      "name": "Gallery",
      "mesh": 0
    }
  ],
  "samplers": [
    {
      "magFilter": 9729,
      "minFilter": 9986,
      "wrapS": 10497,
      "wrapT": 10497
    }
  ],
  "scene": 0,
  "scenes": [
    {
      "nodes": [
        0
      ]
    }
  ],
  "textures": [
    {
      "name": "Diffraction_by_oil_on_water",
      "sampler": 0,
      "source": 0
    }
  ]
}
