{
  "accessors": [
    {
      "name": "BEAR_only_obj_clean_tex:BEAR_only_obj1_1_0_positions",
      "componentType": 5126,
      "count": 11457,
      "min": [
        -9.731152534484863,
        -0.7697849869728088,
        -24.598398208618164
      ],
      "max": [
        7.340159893035889,
        22.453369140625,
        17.486331939697266
      ],
      "type": "VEC3",
      "bufferView": 0,
      "byteOffset": 0
    },
    {
      "name": "BEAR_only_obj_clean_tex:BEAR_only_obj1_1_0_normals",
      "componentType": 5126,
      "count": 11457,
      "min": [
        -0.9993436336517334,
        -0.9993212223052979,
        -0.9979293346405029
      ],
      "max": [
        0.9996693134307861,
        0.999891996383667,
        0.9995812773704529
      ],
      "type": "VEC3",
      "bufferView": 1,
      "byteOffset": 0
    },
    {
      "name": "BEAR_only_obj_clean_tex:BEAR_only_obj1_1_0_texcoords",
      "componentType": 5126,
      "count": 11457,
      "min": [
        0.020545000210404396,
        0.037703000009059906
      ],
      "max": [
        0.9883739948272705,
        0.9771159887313843
      ],
      "type": "VEC2",
      "bufferView": 2,
      "byteOffset": 0
    },
    {
      "name": "BEAR_only_obj_clean_tex:BEAR_only_obj1_1_0_indices",
      "componentType": 5123,
      "count": 11769,
      "min": [
        0
      ],
      "max": [
        11456
      ],
      "type": "SCALAR",
      "bufferView": 3,
      "byteOffset": 0
    }
  ],
  "asset": {
    "generator": "obj2gltf",
    "version": "2.0"
  },
  "buffers": [
    {
      "name": "BEAR-only-obj_clean_tex",
      "byteLength": 2077568,
      "uri": "data:application/octet-stream;base64,"
    }
  ],
  "bufferViews": [
    {
      "name": "bufferView_0",
      "buffer": 0,
      "byteLength": 137484,
      "byteOffset": 0,
      "byteStride": 12,
      "target": 34962
    },
    {
      "name": "bufferView_1",
      "buffer": 0,
      "byteLength": 137484,
      "byteOffset": 137484,
      "byteStride": 12,
      "target": 34962
    },
    {
      "name": "bufferView_2",
      "buffer": 0,
      "byteLength": 91656,
      "byteOffset": 274968,
      "byteStride": 8,
      "target": 34962
    },
    {
      "name": "bufferView_3",
      "buffer": 0,
      "byteLength": 23540,
      "byteOffset": 366624,
      "target": 34963
    },
    {
      "buffer": 0,
      "byteOffset": 390164,
      "byteLength": 1687403
    }
  ],
  "images": [
    {
      "name": "osoo",
      "mimeType": "image/jpeg",
      "bufferView": 4
    }
  ],
  "materials": [
    {
      "name": "BEAR_only_obj_clean_tex:oso",
      "pbrMetallicRoughness": {
        "baseColorTexture": {
          "index": 0
        },
        "baseColorFactor": [
          1,
          1,
          1,
          1
        ],
        "metallicFactor": 0,
        "roughnessFactor": 1
      },
      "emissiveFactor": [
        0,
        0,
        0
      ],
      "alphaMode": "OPAQUE",
      "doubleSided": false
    }
  ],
  "meshes": [
    {
      "name": "BEAR_only_obj_clean_tex:BEAR_only_obj1_1",
      "primitives": [
        {
          "attributes": {
            "POSITION": 0,
            "NORMAL": 1,
            "TEXCOORD_0": 2
          },
          "indices": 3,
          "material": 0,
          "mode": 4
        }
      ]
    }
  ],
  "nodes": [
    {
      "name": "BEAR_only_obj_clean_tex:BEAR_only_obj1",
      "mesh": 0
    }
  ],
  "samplers": [
    {
      "magFilter": 9729,
      "minFilter": 9986,
      "wrapS": 10497,
      "wrapT": 10497
    }
  ],
  "scene": 0,
  "scenes": [
    {
      "nodes": [
        0
      ]
    }
  ],
  "textures": [
    {
      "name": "osoo",
      "sampler": 0,
      "source": 0
    }
  ]
}
